<svg width="28" height="28" viewBox="0 0 28 28" fill="none" xmlns="http://www.w3.org/2000/svg"><path d="M10.5 22.1667C10.5 22.8107 9.97731 23.3333 9.33331 23.3333C8.68931 23.3333 8.16665 22.8107 8.16665 22.1667V10.5C8.16665 9.856 8.68931 9.33333 9.33331 9.33333C9.97731 9.33333 10.5 9.856 10.5 10.5V22.1667ZM15.1666 22.1667C15.1666 22.8107 14.644 23.3333 14 23.3333C13.356 23.3333 12.8333 22.8107 12.8333 22.1667V10.5C12.8333 9.856 13.356 9.33333 14 9.33333C14.644 9.33333 15.1666 9.856 15.1666 10.5V22.1667ZM19.8333 22.1667C19.8333 22.8107 19.3106 23.3333 18.6666 23.3333C18.0226 23.3333 17.5 22.8107 17.5 22.1667V10.5C17.5 9.856 18.0226 9.33333 18.6666 9.33333C19.3106 9.33333 19.8333 9.856 19.8333 10.5V22.1667ZM25.6666 2.33333V4.66667H2.33331V2.33333H8.99615C10.0461 2.33333 10.899 1.05117 10.899 0H17.0998C17.0998 1.05117 17.9515 2.33333 19.0026 2.33333H25.6666ZM22.1666 7V25.6667H5.83331V7H3.49998V28H24.5V7H22.1666Z" fill="#333333"/></svg>
